/* XPM */
static char * 3x!T_xpm[] = {
"32 32 4 1",
" 	c #EA00D9",
".	c #B4FFFF",
"+	c #C64AFF",
"@	c #B437ED",
"                                ",
"                        .       ",
"                       ..       ",
"                .      ..       ",
"           .    .     .++.      ",
"           ...  .     .++.      ",
"          .+++. ..   ..++.      ",
"          .++++.++.  .+@+.      ",
"          .++@+.+@+..++@+.      ",
"         .+++@..@+..++@@+.      ",
"         .+++@++@++++@@@+.      ",
"      ....+@+@@@@@+++.+++.      ",
"     ..++++@+++++@+++.+++.      ",
"      .++@@@+++++@+@+..++.      ",
"       ..++++++++++@++++.       ",
"         .+++@+++++@++....      ",
"          .++@+++++@++.  .      ",
"          .++@+@+++@++..        ",
"        ..++@@++@@++++.         ",
"        .+@@++++.+++..          ",
"        .+++.++..@@+.           ",
"         .+..+@.+@++. .         ",
"        . . .+@.+@+. .          ",
"     ...    .++++@..            ",
"      .     ....+..             ",
"     . .        .               ",
"       .         .              ",
"   .....         .              ",
"     .                          ",
"     .                          ",
"                                ",
"                                "};
