/* XPM */
static char *dummy[]={
"32 32 5 1",
"a c #000001",
"c c #b437ed",
"# c #b4ffff",
"b c #c64aff",
". c #ea00d9",
"................................",
"........................#.......",
"..a......a........a....##.......",
"................#......##.......",
"....a......#....#...a.#bb#.a....",
"...........###..#.....#bb#......",
"..........#bbb#.##...##bb#......",
"..........#bbbb#bb#..#bcb#......",
"......a...#bbcb#bcb##bbcb#...a..",
".........#bbbc##cb##bbccb#......",
".........#bbbcbbcbbbbcccb#.....a",
"......####bcbcccccbbb#bbb#......",
".....##bbbbcbbbbbcbbb#bbb#......",
"......#bbcccbbbbbcbcb##bb#......",
".......##bbbbbbbbbbcbbbb#.......",
".........#bbbcbbbbbcbb####......",
"..........#bbcbbbbbcbb#..#......",
"..........#bbcbcbbbcbb##........",
"..a.....##bbccbbccbbbb#..a......",
"........#bccbbbb#bbb##..........",
"....a...#bbb#bb##ccb#......a....",
".........#b##bc#bcbb#.#.........",
"........#.#.#bc#bcb#.#..........",
".....###....#bbbbc##............",
"......#.....####b##...a......a..",
".....#.#........#...............",
".......#.........#......a......a",
"...#####.........#..............",
".....#..........................",
".....#..........................",
"..........a...............a.....",
"................................"};
