/* XPM */
static char *dummy[]={
"16 16 9 1",
"f c #000000",
"# c #000001",
". c #41004b",
"g c #41008f",
"d c #711c91",
"e c #ad0019",
"c c #b437ed",
"b c #c64aff",
"a c #ff8fe3",
"................",
".##############.",
".#aaaaaaaaaaaa#.",
".#abbaccacdaea#.",
".#abbbccccddea#.",
".#abbbccccddea#.",
".#abbbaccaddda#.",
".#aaaaaaaaaaaa#.",
".##############.",
"................",
"................",
"fff.g......g.fff",
"fff....ff....fff",
"fff.gg.ff.gg.fff",
"fff.gggffggg.fff",
"fff####ff####fff"};
