/* XPM */
static char *dummy[]={
"16 16 8 1",
"# c #000000",
". c #41008f",
"c c #711c91",
"d c #ad0019",
"b c #b437ed",
"f c #b4ffff",
"a c #c64aff",
"e c #ff8fe3",
"..############..",
".aaaaaaaaaaaaaa.",
"#a............a#",
"#a.aa.bb.bc.d.a#",
"#a.aaabbbbccd.a#",
"#a.aaabbbbccd.a#",
"#a.aaa.bb.ccc.a#",
"#a............a#",
"#aaaaaaaaaaaaaa#",
"eeeeeeeeeeeeeeee",
"....eeeeeeee....",
"###.fe....ef.###",
"###.ee.##.ee.###",
"###.ff.##.ff.###",
"###...####...###",
"###...####...###"};
