/* XPM */
static char * coin_xpm[] = {
"16 16 2 1",
" 	c #000000",
".	c #EA00D9",
"                ",
"                ",
"     ......     ",
"    ........    ",
"   ....  ....   ",
"  .....  .....  ",
"  ....    ....  ",
"  ....    ....  ",
"  ...      ...  ",
"  ...      ...  ",
"  ...      ...  ",
"  ...      ...  ",
"   ...    ...   ",
"    ...  ...    ",
"                ",
"                "};
