/* XPM */
static char * D1n3R0_xpm[] = {
"16 16 2 1",
" 	c #000000",
".	c #B4FFFF",
"  .          .  ",
" ..          .. ",
" .  ...  ...  . ",
" . ...    ... . ",
" ....      .... ",
" ...        ... ",
" ...        ... ",
" ...        ... ",
" ... .    . ... ",
"  ..        ..  ",
"  ... .  . ...  ",
"  .....  .....  ",
"  . ........ .  ",
"  .. ...... ..  ",
"   .        .   ",
"                "};
