/* XPM */
static char * door_xpm[] = {
"32 32 3 1",
" 	c #B437ED",
".	c #B4FFFF",
"+	c #C64AFF",
"    ......            ......    ",
"  ..++++++...      ...++++++..  ",
" .+++    ++++.    .++++    +++. ",
" .+ ++++++  +.    .+  ++++++ +. ",
".++++   +++ +.    .+ +++   ++++.",
".+ + ++++ ++++.  .++++ ++++ + +.",
".+ + +  ++++ +.  .+ ++++  + + +.",
".+ + + + + + +.  .+ + + + + + +.",
".+ ++++  + + +.  .+ + +  ++++ +.",
".++++ ++++ + +.  .+ + ++++ ++++.",
" .+ +++   ++ +.  .+ ++   +++ +. ",
" .+  +++++++ +.  .+ +++++++  +. ",
" .++++      ++.  .++      ++++. ",
"  ...++++++++. ++ .++++++++...  ",
"     ........ +  + ........     ",
"             + ++ +             ",
"             + ++ +             ",
"     ........ +  + ........     ",
"  ...++++++++. ++ .++++++++...  ",
" .++++      ++.  .++      ++++. ",
" .+  +++++++ +.  .+ +++++++  +. ",
" .+ +++   ++ +.  .+ ++   +++ +. ",
".++++ ++++ + +.  .+ + ++++ ++++.",
".+ ++++  + + +.  .+ + +  ++++ +.",
".+ + + + + + +.  .+ + + + + + +.",
".+ + +  ++++ +.  .+ ++++  + + +.",
".+ + ++++ ++++.  .++++ ++++ + +.",
".++++   +++ +.    .+ +++   ++++.",
" .+ ++++++  +.    .+  ++++++ +. ",
" .+++    ++++.    .++++    +++. ",
"  ..++++++...      ...++++++..  ",
"    ......            ......    "};
