/* XPM */
static char * exit_xpm[] = {
"32 32 4 1",
" 	c #FF8FE3",
".	c #41008F",
"+	c #FFFFFF",
"@	c #41004B",
"                                ",
"                                ",
"                                ",
"                                ",
"                                ",
"                                ",
"              .....             ",
"           ...........          ",
"          .+...........         ",
"         ...............        ",
"        .......+..+++....       ",
"       ............+++...@      ",
"       .............+++..@      ",
"       ...+....+....+++..@      ",
"      .........++..++++..@@     ",
"      ..........++++++...@@     ",
"      +..........++++....@@     ",
"      ...................@@     ",
"      .........+........@@@     ",
"       ..............+..@@      ",
"       ....+............@@      ",
"       ..........+.....@@@      ",
"        ..............@@@       ",
"         ............@@@        ",
"          ...+....@@@@@         ",
"           @@@@@@@@@@@          ",
"              @@@@@             ",
"                                ",
"                                ",
"                                ",
"                                ",
"                                "};
