/* XPM */
static char *dummy[]={
"32 32 5 1",
"c c #41004b",
"a c #41008f",
". c #ff8fe3",
"# c #fffffe",
"b c #ffffff",
"................................",
"................................",
"..#......#........#......#......",
"................................",
"....#......#........#......#....",
"................................",
"..............aaaaa.............",
"...........aaaaaaaaaaa..........",
"......#...abaaaaaaaaaaa......#..",
".........aaaaaaaaaaaaaaa........",
"........aaaaaaabaabbbaaaa......#",
".......aaaaaaaaaaaabbbaaac......",
".......aaaaaaaaaaaaabbbaac......",
".......aaabaaaabaaaabbbaac......",
"......aaaaaaaaabbaabbbbaacc.....",
"......aaaaaaaaaabbbbbbaaacc.....",
"......baaaaaaaaaabbbbaaaacc.....",
"......aaaaaaaaaaaaaaaaaaacc.....",
"..#...aaaaaaaaabaaaaaaaaccc.....",
".......aaaaaaaaaaaaaabaacc......",
"....#..aaaabaaaaaaaaaaaacc.#....",
".......aaaaaaaaaabaaaaaccc......",
"........aaaaaaaaaaaaaaccc.......",
".........aaaaaaaaaaaaccc........",
"......#...aaabaaaaccccc......#..",
"...........ccccccccccc..........",
"........#.....ccccc.....#......#",
"................................",
"................................",
"................................",
"..........#...............#.....",
"................................"};
