/* XPM */
static char * floor_xpm[] = {
"32 32 2 1",
" 	c #FF8FE3",
".	c #FFFFFF",
"                                ",
"                                ",
"  .      .        .      .      ",
"                                ",
"    .      .        .      .    ",
"                                ",
"                                ",
"                                ",
"      .      .        .      .  ",
"                                ",
"        .      .        .      .",
"                                ",
"                                ",
"                                ",
"          .               .     ",
"                                ",
"                                ",
"                                ",
"  .      .        .      .      ",
"                                ",
"    .      .        .      .    ",
"                                ",
"                                ",
"                                ",
"      .      .        .      .  ",
"                                ",
"        .      .        .      .",
"                                ",
"                                ",
"                                ",
"          .               .     ",
"                                "};
