/* XPM */
static char *dummy[]={
"16 16 4 1",
". c #000000",
"b c #000001",
"# c #711c91",
"a c #ff0026",
"...........#....",
"....#.####a.....",
"..####a.........",
"..#aaaaaaaa##...",
"..#aaaaaaaa#a...",
"..#aabbaa#bba...",
"...aabbaa#abb...",
"...aaa######b.a.",
"...abaa#b#aaa.aa",
"...abba###baa.##",
"...aa#b#aabaa.#.",
"...a##aaabbb#...",
"...aaaaaabb##...",
"...#a...aa..#a..",
"...##...a#..#a..",
"................"};
