/* XPM */
static char *dummy[]={
"16 16 3 1",
". c #000000",
"# c #000001",
"a c #ff0026",
"..........#.....",
"#####....######.",
".#aa#....#aaaa##",
".#aa#....#aaaa#.",
".####.#..#a#aa#.",
".........#aaaa#.",
".........######.",
"...##..#......#.",
"...##.##........",
"..........#.....",
"..#.........#...",
".......#...####.",
".###.......#a##.",
".#a#.......#aa#.",
".###.#.....####.",
"..#............#"};
