/* XPM */
static char *dummy[]={
"16 16 9 1",
". c None",
"b c None",
"f c None",
"# c None",
"g c None",
"c c #b437ed",
"e c #b4ffff",
"d c #c64aff",
"a c #ffffff",
"............#...",
"....aaa.....#b..",
".b#accca....##..",
"##adeeda....fb..",
".badeeda.a..###.",
".bacccccaca.bb..",
".b#aaaeeacda##..",
"..bb.acccca.fff.",
".fff..adacaabb..",
"..##..acccccag..",
"..bb..aeecaa##b.",
".###...acccaf#b.",
"..bf...aecaaf###",
"..##....acccag..",
"..b#....acea....",
"...#.....aa....."};
