/* XPM */
static char *dummy[]={
"16 16 4 1",
". c #000000",
"b c #711c91",
"a c #ea00d9",
"# c #ffffff",
"................",
"......#.........",
"......###.......",
"..##.####.......",
"..##.#aa#.####..",
"...#.####.#ba#..",
"..##...#..#bb#..",
"..#....#..####..",
"..###.##...###..",
"....#######b#...",
"...#b#aaaa#b#...",
"...#bbbbba###...",
"...####b###.....",
"......###.......",
"................",
"................"};
