/* XPM */
static char * player1_xpm[] = {
"16 16 8 1",
" 	c #FFFFFF",
".	c #000000",
"+	c #00FFFF",
"@	c #6D6D6D",
"#	c #A4A4A4",
"$	c #C9C9C9",
"%	c #F5F5F5",
"&	c #C64AFF",
"  ............  ",
"                ",
". ++++++++++++ .",
". +@@+##+#$+%+ .",
". +@@@####$$%+ .",
". +@@@####$$%+ .",
". +@@@+##+$$$+ .",
". ++++++++++++ .",
"&              &",
"&&&&&&&&&&&&&&&&",
"&&&&&&&&&&&&&&&&",
"...&&&&&&&&&&...",
"...&&&&..&&&&...",
"...&&&&..&&&&...",
"...&&&&..&&&&...",
"...    ..    ..."};
