/* XPM */
static char * plqy@2_xpm[] = {
"16 16 7 1",
" 	c #000001",
".	c #000000",
"+	c #EA00D9",
"@	c #0C0C0D",
"#	c #151515",
"$	c #202021",
"%	c #711C91",
"  ............  ",
"                ",
". ++++++++++++ .",
". +  +@@+@#+$+ .",
". +   @@@@##$+ .",
". +   @@@@##$+ .",
". +   +@@+###+ .",
". ++++++++++++ .",
"%              %",
"%%%%%%%%%%%%%%%%",
"%%%%%%%%%%%%%%%%",
"...%%%%%%%%%%...",
"...%%%%..%%%%...",
"...%%%%..%%%%...",
"...%%%%..%%%%...",
"...    ..    ..."};
