/* XPM */
static char *dummy[]={
"16 16 5 1",
"# c #000000",
"c c #000001",
"b c #027302",
"a c #711c91",
". c #ff0026",
"...###....###...",
".##...####...##.",
".##############.",
"#.##aa########.#",
"#.##aab#######.#",
"#.##a.b##b####.#",
".####bbbbb#####.",
".####baaab#####.",
".####baabbb#a##.",
".#abbbaabb.aa##.",
"#.abbb#bbbaaa#.#",
"#.aba##bbbbba#.#",
"#.aaa#######a#.#",
".###a#######a##.",
".##...####...##.",
"...###....ccc..."};
