/* XPM */
static char *dummy[]={
"16 16 5 1",
". c #000000",
"# c #000001",
"a c #027302",
"b c #711c91",
"c c #ff0026",
".#..............",
".aaaaaaa..a...a.",
".abbbbba..a.a.a.",
".ababbba.aaaaaa.",
".abaacaa.abba...",
".abbaccaaacbaa..",
".aabaaaaaaaaaaa.",
"...abbbaabaa..a.",
"...abbbababa....",
"...aabbabaaaaa..",
"...aabbaaaaaba..",
"..aaabaaa..abaa.",
"..a.aaa.aa.aa...",
".aa..aa.aa..a.a.",
".a...a...a..a.a.",
".........####..."};
