/* XPM */
static char *dummy[]={
"16 16 6 1",
"# c None",
"d c None",
". c None",
"c c #000001",
"b c #04bb04",
"a c #711c91",
"..##########a###",
"....a##b#cccac##",
"#cacacabcaaaaa##",
"aaabacabcaabbc##",
"#cabbbbbaabbaaa#",
"#caabcbccccbcc##",
"#caaacbbbbbbaa##",
"#.ccacbbbbcbbbb#",
"dbbbbcbbbbcacc##",
"ddaabbbbbbcaaac#",
"ddccbccccbcbaac#",
"#aaabbaabbbbbac#",
"##cbbaacbacabaaa",
"##aaaaacbacacac#",
"##caccc#b##ad###",
"###a...##....###"};
