/* XPM */
static char *dummy[]={
"32 32 3 1",
"# c #000001",
"a c #ad0019",
". c #ea00d9",
"................................",
"..#####...#a###..###a#...#####..",
".#aaaaa#..#aaa####aaa#..#aaaaa#.",
".#a....##a#a#aaaaaa#a#a##....a#.",
".#a.a###aa#a#.aaaa.#a#aa###a.a#.",
".#a.#aaaaa#a#..##..#a#aaaaa#.a#.",
".#a.#a#####a#..##..#a#####a#.a#.",
"..###a#.a####..##..####a.#a###..",
"...#aa#aa#a.#.####.#.a#aa#aa#...",
"...aaa####a....##....a####aaa...",
".#######aaa..######..aaa#######.",
".aaaaaa#.......aa.......#aaaaaa.",
".#a######....#a..a#....######a#.",
".#aa......#.##a..a##.#......aa#.",
".##aa...#.#.aaa..aaa.#.#...aa##.",
"..#aa######a........a######aa#..",
"..#aa######a........a######aa#..",
".##aa...#.#.aaa..aaa.#.#...aa##.",
".#aa......#.##a..a##.#......aa#.",
".#a######....#a..a#....######a#.",
".aaaaaa#.......aa.......#aaaaaa.",
".#######aaa..######..aaa#######.",
"...aaa####a....##....a####aaa...",
"...#aa#aa#a.#.####.#.a#aa#aa#...",
"..###a#.a####..##..####a.#a###..",
".#a.#a#####a#..##..#a#####a#.a#.",
".#a.#aaaaa#a#..##..#a#aaaaa#.a#.",
".#a.a###aa#a#.aaaa.#a#aa###a.a#.",
".#a....##a#a#aaaaaa#a#a##....a#.",
".#aaaaa#..#aaa####aaa#..#aaaaa#.",
"..#####...#a###..###a#...#####..",
"................................"};
