/* XPM */
static char * wall_xpm[] = {
"32 32 3 1",
" 	c #B437ED",
".	c #B4FFFF",
"+	c #C64AFF",
"                                ",
"   ........          ........   ",
"  .++++++++...    ...++++++++.  ",
" .++++++++++++.  .++++++++++++. ",
" .++++++++++++.  .++++++++++++. ",
" .++++++++++++.  .++++++++++++. ",
" .+++++++++++++..+++++++++++++. ",
" .++++++++++++++++++++++++++++. ",
" .++++++++++++++++++++++++++++. ",
" .++++++++++++++++++++++++++++. ",
" .++++++++++++++++++++++++++++. ",
"  .++++++++++++..++++++++++++.  ",
"  .+++++++++++.  .+++++++++++.  ",
"  .+++++++++++.  .+++++++++++.  ",
"   ...++++++..    ..++++++...   ",
"      .++++.   ..   .++++.      ",
"      .++++.   ..   .++++.      ",
"   ...++++++..    ..++++++...   ",
"  .+++++++++++.  .+++++++++++.  ",
"  .+++++++++++.  .+++++++++++.  ",
"  .++++++++++++..++++++++++++.  ",
" .++++++++++++++++++++++++++++. ",
" .++++++++++++++++++++++++++++. ",
" .++++++++++++++++++++++++++++. ",
" .++++++++++++++++++++++++++++. ",
" .+++++++++++++..+++++++++++++. ",
" .++++++++++++.  .++++++++++++. ",
" .++++++++++++.  .++++++++++++. ",
" .++++++++++++.  .++++++++++++. ",
"  .++++++++...    ...++++++++.  ",
"   ........          ........   ",
"                                "};
