/* XPM */
static char * wall_xpm[] = {
"32 32 2 1",
" 	c #24FFFF",
".	c #FF6799",
"    .........      .........    ",
"    .........      .........    ",
"   ...........    ...........   ",
"  .............  .............  ",
"...............  ...............",
"...............  ...............",
".......  ..............  .......",
".......     ........     .......",
"........ .............. ........",
"........ .    ....    . ........",
"........ . .......... . ........",
".......... . ...... . ..........",
".......... .......... ..........",
"  ............    ............  ",
"   .......... .... ..........   ",
"      ...     .  .     ...      ",
"      ...     .  .     ...      ",
"   .......... .... ..........   ",
"  ............    ............  ",
".......... .......... ..........",
".......... . ...... . ..........",
"........ . .......... . ........",
"........ .    ....    . ........",
"........ .............. ........",
".......     ........     .......",
".......  ..............  .......",
"...............  ...............",
"...............  ...............",
"  .............  .............  ",
"   ...........    ...........   ",
"    .........      .........    ",
"    .........      .........    "};
