/* XPM */
static char * wall_xpm[] = {
"32 32 4 1",
" 	c #FF007F",
".	c #FFFFFF",
"+	c #6B007F",
"@	c #00FFFF",
"       ......+++++++++++....    ",
"     .......+++++++++++++....   ",
"  ....@@@@@@@@@@@@@@@@@@@@@@..  ",
" .....@@@@@@             @@@..  ",
"..@@@@@                   @@..  ",
"..@@@@                    @@... ",
"..@@                       @@@. ",
".+@                         @@..",
"++@                         @@..",
"++@                         @@..",
"++@                         @@..",
"++@                         @@..",
"++@                          @+.",
"++@          @@@...          @++",
"++@          @..@@.          @++",
"++@          @..@@.          @++",
"++@          .@@..@          @++",
"++@          .@@..@          @++",
"++@          ...@@@          @++",
".+@                          @++",
"..@@                         @++",
"..@@                         @++",
"..@@                         @++",
"..@@                         @++",
"..@@                         @+.",
" .@@@                       @@..",
" ...@@                    @@@@..",
"  ..@@                   @@@@@..",
"  ..@@@             @@@@@@..... ",
"  ..@@@@@@@@@@@@@@@@@@@@@@....  ",
"   ....+++++++++++++.......     ",
"    ....+++++++++++......       "};
