/* XPM */
static char * wqll_xpm[] = {
"32 32 3 1",
" 	c #711C91",
".	c #000001",
"+	c #EA00D9",
"                                ",
"   ........          ........   ",
"  .++++++++...    ...++++++++.  ",
" .+        +++.  .+++        +. ",
" .+          +.  .+          +. ",
" .+          +.  .+          +. ",
" .+           +..+           +. ",
" .+            ++            +. ",
" .+                          +. ",
" .+                          +. ",
" .+            ++            +. ",
"  .+          +..+          +.  ",
"  .+         +.++.+         +.  ",
"  .+++      ++.++.++      +++.  ",
"   ...+    +..++++..+    +...   ",
"      .+  +.+++..+++.+  +.      ",
"      .+  +.+++..+++.+  +.      ",
"   ...+    +..++++..+    +...   ",
"  .+++      ++.++.++      +++.  ",
"  .+         +.++.+         +.  ",
"  .+          +..+          +.  ",
" .+            ++            +. ",
" .+                          +. ",
" .+                          +. ",
" .+            ++            +. ",
" .+           +..+           +. ",
" .+          +.  .+          +. ",
" .+          +.  .+          +. ",
" .+        +++.  .+++        +. ",
"  .++++++++...    ...++++++++.  ",
"   ........          ........   ",
"                                "};
